<?xml version="1.0" encoding="UTF-8"?>
<svg id="Layer_1" data-name="Layer 1" xmlns="http://www.w3.org/2000/svg" viewBox="0 0 1174.01 268.73">
  <path d="M67.83,202.44v-63.92H206.04V62.36H104.83C92.53,41.71,80.14,21.01,67.64,.02c1.18-.05,25.18,0,36.3,0,21.11,0,42.23-.03,63.34,.01,11.93,.02,23.62,1.8,34.77,6.1,34.53,13.33,56.83,37.85,64.87,74.03,10.16,45.77-12.7,90.36-52.89,111.02-14.92,7.67-30.82,11.28-47.59,11.26-31.99-.04-97.55-.01-98.6-.01Z" style="fill: #fff;"/>
  <path d="M0,133.56V67.17H201.25v66.39H0Z" style="fill: #fff;"/>
  <path d="M670.39,175.83v51.7h-24.81V78.87h24.75v7.91c1.08-.71,1.78-1.14,2.46-1.61,8.17-5.66,17.22-8.79,27.15-8.91,16.03-.19,29.19,6.16,39.51,18.3,19.46,22.9,17.05,58.7-5.26,78.64-10.67,9.53-23.23,13.82-37.51,12.69-8.7-.69-16.63-3.72-23.82-8.69-.59-.41-1.18-.81-1.78-1.22-.06-.04-.15-.04-.7-.15Zm27.93-74.43c-5.19-.03-9.94,1.43-14.28,4.21-15.66,10.05-18.29,33.06-5.36,46.65,11.66,12.25,30.44,11.44,41.01-1.78,8.76-10.95,9.01-26.94,.46-38.04-5.48-7.12-12.74-10.95-21.83-11.04Z" style="fill: #fff;"/>
  <path d="M363.86,182.5h-27.39V42.98s43.86-.02,64.56,0c7.92,0,15.59,1.3,22.82,4.68,11.94,5.59,19.4,14.79,22.43,27.6,2.31,9.8,1.98,19.52-1.2,29.07-4.34,13.03-13.56,21.15-26.35,25.5-6.36,2.16-12.97,2.72-19.62,2.75-10.79,.06-35.26,.02-35.26,.02v49.9Zm.12-115.6v41.77s.91,0,1.29,0c9.75,0,19.49,.01,29.24-.04,1.99-.01,3.99-.2,5.97-.42,3.1-.35,6.15-.93,9.02-2.24,5.4-2.47,8.86-6.58,9.81-12.42,.52-3.19,.68-6.54,.35-9.76-.8-7.76-5.14-12.96-12.63-15.19-3.03-.9-6.26-1.47-9.41-1.53-10.78-.22-21.57-.14-32.35-.17-.39,0-1.29,0-1.29,0Z" style="fill: #fff;"/>
  <path d="M960.03,140.42h-83.3c3.51,10.14,9.9,17,19.62,20.66,6.25,2.36,12.65,2.56,19.09,.86,6.36-1.68,11.63-5.16,16.1-10.17,8.04,2.45,16.04,4.89,24.35,7.42-.63,1.04-1.11,1.92-1.67,2.74-8.55,12.45-20.3,20.27-35,23.38-26.47,5.61-50.37-7.61-61.32-28.82-16.69-32.33,2.37-72.2,38.01-79.45,29.05-5.91,56.18,11.39,63.3,40.33,1.62,6.59,2.03,13.25,1.4,19.98-.04,.48-.13,.95-.21,1.42-.09,.46-.2,.92-.37,1.64Zm-25.57-19.58c-.23-.79-.35-1.4-.57-1.97-1.24-3.22-2.9-6.22-5.03-8.93-3.55-4.51-8-7.75-13.56-9.36-15.11-4.37-32.14,4.25-37.64,19.05-.13,.34-.14,.72-.23,1.21h57.05Z" style="fill: #fff;"/>
  <path d="M632.56,131.33c.22,30.53-25.21,55.5-55.67,55.26-30.41-.24-55.22-25.07-55.08-55.45,.14-30.19,24.26-55.36,55.51-55.26,32.75,.11,55.67,27,55.24,55.45Zm-55.31-29.84c-16.47,0-29.79,13.24-29.82,29.67-.03,16.43,13.24,29.81,29.65,29.89,16.5,.08,29.97-13.34,29.94-29.84-.02-16.44-13.32-29.71-29.77-29.72Z" style="fill: #fff;"/>
  <path d="M788.15,68.03h-46.13v-24.87h119.64l.09,24.87h-46.22v114.47h-27.37c-.05-.99,0-114.46,0-114.46Z" style="fill: #fff;"/>
  <path d="M1065.88,182.48h-29.19c-7.85-10.69-15.83-21.56-23.75-32.35-.22-.02-.3-.03-.37-.02-.08,0-.17,.02-.22,.07-.17,.17-.34,.33-.49,.53-7.72,10.49-15.44,20.99-23.16,31.48-.05,.06-.12,.11-.18,.16-.06,.05-.13,.1-.26,.2h-28.4c-.05-.15-.09-.23-.1-.3-.01-.07-.02-.17,.02-.23,.21-.34,.41-.68,.64-1,12.42-16.96,24.84-33.92,37.25-50.88,.04-.06,.05-.15,.17-.58-12.13-16.54-24.4-33.26-36.98-50.42,9.93-.16,19.38-.03,29.11-.08,7.44,10.13,14.94,20.35,22.64,30.83,7.63-10.39,15.08-20.53,22.54-30.68h29.19c-12.5,17.04-24.76,33.76-37.1,50.58,12.86,17.53,25.64,34.96,38.66,52.7Z" style="fill: #fff;"/>
  <path d="M1174.01,182.5h-29.19c-7.9-10.75-15.89-21.63-24.11-32.82-8.12,11.05-16.09,21.9-24.1,32.82h-29.17c13.02-17.74,25.8-35.17,38.67-52.72-12.32-16.79-24.59-33.52-37.09-50.56h29.17c7.36,10.02,14.86,20.24,22.51,30.66,7.62-10.38,15.09-20.55,22.57-30.74h28.57c.05,.1,.1,.17,.12,.25,.02,.07,.04,.15,.02,.22-.05,.15-.1,.31-.19,.43-12.1,16.5-24.2,33-36.47,49.74,12.78,17.42,25.57,34.86,38.68,52.72Z" style="fill: #fff;"/>
  <path d="M486.19,182.55h-25.82V79.57h25.2v11.75s1.2-1.19,1.65-1.68c6.18-6.83,13.57-11.61,22.76-13.25,3.08-.55,6.43-.5,9.5-.13v27.79c-.85-.28-1.65-.55-2.46-.8-4.51-1.42-9.08-1.83-13.71-.75-9.06,2.12-15.83,9.76-16.84,19.02-.17,1.58-.27,3.19-.27,4.78-.02,17.74-.01,35.48-.01,53.22v3.05Z" style="fill: #fff;"/>
  <path d="M134.5,207.31v61.23c-.08,.05-.14,.11-.21,.14-.07,.03-.15,.07-.21,.05-.3-.11-.61-.21-.88-.37-21.77-12.62-43.53-25.24-65.35-37.9v-23.15h66.65Z" style="fill: #fff;"/>
</svg>