<svg width="454" height="751" viewBox="0 0 454 751" fill="none" xmlns="http://www.w3.org/2000/svg">
<path d="M423.309 -425.573C487.297 -461.191 566 -414.926 566 -341.692L566 361.713C566 538.926 377.97 652.916 220.85 570.956L-22 444.275L-22 -13.6883C-22 -114.929 32.8443 -208.226 121.304 -257.466L423.309 -425.573Z" fill="url(#paint0_linear_303_1537)"/>
<mask id="mask0_303_1537" style="mask-type:alpha" maskUnits="userSpaceOnUse" x="-22" y="-505" width="588" height="950">
<path d="M566 -505L566 444.275L-22 444.275L-22 -148.306C-22 -166.449 -12.1713 -183.169 3.68175 -191.993L566 -505Z" fill="#F9F8FF"/>
</mask>
<g mask="url(#mask0_303_1537)">
<ellipse cx="248.182" cy="324.986" rx="248.182" ry="324.986" transform="matrix(0.460117 0.887859 -0.952979 0.303036 765.053 -39.3818)" fill="url(#paint1_linear_303_1537)" fill-opacity="0.44" style="mix-blend-mode:multiply"/>
</g>
<defs>
<linearGradient id="paint0_linear_303_1537" x1="566" y1="-305.087" x2="136.049" y2="526.037" gradientUnits="userSpaceOnUse">
<stop stop-color="#0031E5"/>
<stop offset="1" stop-color="#B871FE"/>
</linearGradient>
<linearGradient id="paint1_linear_303_1537" x1="248.182" y1="0" x2="248.182" y2="649.972" gradientUnits="userSpaceOnUse">
<stop stop-color="#684FFF"/>
<stop offset="1" stop-color="#FFF8F0" stop-opacity="0"/>
</linearGradient>
</defs>
</svg>
